<svg width="134" height="107" viewBox="0 0 134 107" fill="none" xmlns="http://www.w3.org/2000/svg">
<path d="M128.714 2.61188C128.714 4.05438 129.897 5.22376 131.357 5.22376C132.817 5.22376 134 4.05438 134 2.61188C134 1.16938 132.817 -5.17241e-08 131.357 -1.15529e-07C129.897 -1.79334e-07 128.714 1.16938 128.714 2.61188Z" fill="#C8C6C6"/>
<path d="M128.714 28.0632C128.714 29.5057 129.897 30.6751 131.357 30.6751C132.817 30.6751 134 29.5057 134 28.0632C134 26.6207 132.817 25.4513 131.357 25.4513C129.897 25.4513 128.714 26.6207 128.714 28.0632Z" fill="#C8C6C6"/>
<path d="M128.714 53.4855C128.714 54.928 129.897 56.0974 131.357 56.0974C132.817 56.0974 134 54.928 134 53.4855C134 52.043 132.817 50.8736 131.357 50.8736C129.897 50.8736 128.714 52.043 128.714 53.4855Z" fill="#C8C6C6"/>
<path d="M128.714 78.9368C128.714 80.3793 129.897 81.5487 131.357 81.5487C132.817 81.5487 134 80.3793 134 78.9368C134 77.4943 132.817 76.3249 131.357 76.3249C129.897 76.3249 128.714 77.4943 128.714 78.9368Z" fill="#C8C6C6"/>
<path d="M128.714 104.388C128.714 105.831 129.897 107 131.357 107C132.817 107 134 105.831 134 104.388C134 102.946 132.817 101.776 131.357 101.776C129.897 101.776 128.714 102.946 128.714 104.388Z" fill="#C8C6C6"/>
<path d="M102.959 2.61188C102.959 4.05438 104.143 5.22376 105.602 5.22376C107.062 5.22376 108.245 4.05438 108.245 2.61188C108.245 1.16938 107.062 -5.17241e-08 105.602 -1.15529e-07C104.143 -1.79334e-07 102.959 1.16938 102.959 2.61188Z" fill="#C8C6C6"/>
<path d="M102.959 28.0632C102.959 29.5057 104.143 30.6751 105.602 30.6751C107.062 30.6751 108.245 29.5057 108.245 28.0632C108.245 26.6207 107.062 25.4513 105.602 25.4513C104.143 25.4513 102.959 26.6207 102.959 28.0632Z" fill="#C8C6C6"/>
<path d="M102.959 53.4855C102.959 54.928 104.143 56.0974 105.602 56.0974C107.062 56.0974 108.245 54.928 108.245 53.4855C108.245 52.043 107.062 50.8736 105.602 50.8736C104.143 50.8736 102.959 52.043 102.959 53.4855Z" fill="#C8C6C6"/>
<path d="M102.959 78.9368C102.959 80.3793 104.143 81.5487 105.602 81.5487C107.062 81.5487 108.245 80.3793 108.245 78.9368C108.245 77.4943 107.062 76.3249 105.602 76.3249C104.143 76.3249 102.959 77.4943 102.959 78.9368Z" fill="#C8C6C6"/>
<path d="M102.959 104.388C102.959 105.831 104.143 107 105.602 107C107.062 107 108.245 105.831 108.245 104.388C108.245 102.946 107.062 101.776 105.602 101.776C104.143 101.776 102.959 102.946 102.959 104.388Z" fill="#C8C6C6"/>
<path d="M77.2343 2.61188C77.2343 4.05438 78.4176 5.22376 79.8773 5.22376C81.337 5.22376 82.5203 4.05438 82.5203 2.61188C82.5203 1.16938 81.337 -5.17241e-08 79.8773 -1.15529e-07C78.4176 -1.79334e-07 77.2343 1.16938 77.2343 2.61188Z" fill="#C8C6C6"/>
<path d="M77.2343 28.0632C77.2343 29.5057 78.4176 30.6751 79.8773 30.6751C81.337 30.6751 82.5203 29.5057 82.5203 28.0632C82.5203 26.6207 81.337 25.4513 79.8773 25.4513C78.4176 25.4513 77.2343 26.6207 77.2343 28.0632Z" fill="#C8C6C6"/>
<path d="M77.2343 53.4855C77.2343 54.928 78.4176 56.0974 79.8773 56.0974C81.337 56.0974 82.5203 54.928 82.5203 53.4855C82.5203 52.043 81.337 50.8736 79.8773 50.8736C78.4176 50.8736 77.2343 52.043 77.2343 53.4855Z" fill="#C8C6C6"/>
<path d="M77.2343 78.9368C77.2343 80.3793 78.4176 81.5487 79.8773 81.5487C81.337 81.5487 82.5203 80.3793 82.5203 78.9368C82.5203 77.4943 81.337 76.3249 79.8773 76.3249C78.4176 76.3249 77.2343 77.4943 77.2343 78.9368Z" fill="#C8C6C6"/>
<path d="M77.2343 104.388C77.2343 105.831 78.4176 107 79.8773 107C81.337 107 82.5203 105.831 82.5203 104.388C82.5203 102.946 81.337 101.776 79.8773 101.776C78.4176 101.776 77.2343 102.946 77.2343 104.388Z" fill="#C8C6C6"/>
<path d="M51.4797 2.61188C51.4797 4.06292 52.6544 5.22376 54.1227 5.22376C55.5911 5.22376 56.7657 4.06292 56.7657 2.61188C56.7657 1.16084 55.5911 -5.13465e-08 54.1227 -1.15529e-07C52.6544 -1.79712e-07 51.4797 1.16084 51.4797 2.61188Z" fill="#C8C6C6"/>
<path d="M51.4797 28.0632C51.4797 29.5142 52.6544 30.6751 54.1227 30.6751C55.5911 30.6751 56.7657 29.5142 56.7657 28.0632C56.7657 26.6122 55.5911 25.4513 54.1227 25.4513C52.6544 25.4513 51.4797 26.6122 51.4797 28.0632Z" fill="#C8C6C6"/>
<path d="M51.4797 53.4855C51.4797 54.9365 52.6544 56.0974 54.1227 56.0974C55.5911 56.0974 56.7657 54.9365 56.7657 53.4855C56.7657 52.0345 55.5911 50.8736 54.1227 50.8736C52.6544 50.8736 51.4797 52.0635 51.4797 53.4855Z" fill="#C8C6C6"/>
<path d="M51.4797 78.9368C51.4797 80.3878 52.6544 81.5487 54.1227 81.5487C55.5911 81.5487 56.7657 80.3878 56.7657 78.9368C56.7657 77.4858 55.5911 76.3249 54.1227 76.3249C52.6544 76.3249 51.4797 77.4858 51.4797 78.9368Z" fill="#C8C6C6"/>
<path d="M51.4797 104.388C51.4797 105.839 52.6544 107 54.1227 107C55.5911 107 56.7657 105.839 56.7657 104.388C56.7657 102.937 55.5911 101.776 54.1227 101.776C52.6544 101.776 51.4797 102.937 51.4797 104.388Z" fill="#C8C6C6"/>
<path d="M25.7252 2.61188C25.7252 4.05438 26.9085 5.22376 28.3682 5.22376C29.8279 5.22376 31.0112 4.05438 31.0112 2.61188C31.0112 1.16938 29.8279 -5.17243e-08 28.3682 -1.15529e-07C26.9085 -1.79334e-07 25.7252 1.16938 25.7252 2.61188Z" fill="#C8C6C6"/>
<path d="M25.7252 28.0632C25.7252 29.5057 26.9085 30.6751 28.3682 30.6751C29.8279 30.6751 31.0112 29.5057 31.0112 28.0632C31.0112 26.6207 29.8279 25.4513 28.3682 25.4513C26.9085 25.4513 25.7252 26.6207 25.7252 28.0632Z" fill="#C8C6C6"/>
<path d="M25.7252 53.4855C25.7252 54.928 26.9085 56.0974 28.3682 56.0974C29.8279 56.0974 31.0112 54.928 31.0112 53.4855C31.0112 52.043 29.8279 50.8736 28.3682 50.8736C26.9085 50.8736 25.7252 52.043 25.7252 53.4855Z" fill="#C8C6C6"/>
<path d="M25.7252 78.9368C25.7252 80.3793 26.9085 81.5487 28.3682 81.5487C29.8279 81.5487 31.0112 80.3793 31.0112 78.9368C31.0112 77.4943 29.8279 76.3249 28.3682 76.3249C26.9085 76.3249 25.7252 77.4943 25.7252 78.9368Z" fill="#C8C6C6"/>
<path d="M25.7252 104.388C25.7252 105.831 26.9085 107 28.3682 107C29.8279 107 31.0112 105.831 31.0112 104.388C31.0112 102.946 29.8279 101.776 28.3682 101.776C26.9085 101.776 25.7252 102.946 25.7252 104.388Z" fill="#C8C6C6"/>
<path d="M1.65751e-05 2.61188C1.65121e-05 4.05438 1.18333 5.22376 2.64302 5.22376C4.10271 5.22376 5.28601 4.05438 5.28601 2.61188C5.28601 1.16938 4.10271 -5.17239e-08 2.64302 -1.15529e-07C1.18333 -1.79334e-07 1.66382e-05 1.16938 1.65751e-05 2.61188Z" fill="#C8C6C6"/>
<path d="M1.65751e-05 28.0632C1.65121e-05 29.5057 1.18333 30.6751 2.64302 30.6751C4.10271 30.6751 5.28601 29.5057 5.28601 28.0632C5.28601 26.6207 4.10271 25.4513 2.64302 25.4513C1.18333 25.4513 1.66382e-05 26.6207 1.65751e-05 28.0632Z" fill="#C8C6C6"/>
<path d="M1.65751e-05 53.4855C1.65121e-05 54.928 1.18333 56.0974 2.64302 56.0974C4.10271 56.0974 5.28601 54.928 5.28601 53.4855C5.28601 52.043 4.10271 50.8736 2.64302 50.8736C1.18333 50.8736 1.66382e-05 52.043 1.65751e-05 53.4855Z" fill="#C8C6C6"/>
<path d="M1.65751e-05 78.9368C1.65121e-05 80.3793 1.18333 81.5487 2.64302 81.5487C4.10271 81.5487 5.28601 80.3793 5.28601 78.9368C5.28601 77.4943 4.10271 76.3249 2.64302 76.3249C1.18333 76.3249 1.66382e-05 77.4943 1.65751e-05 78.9368Z" fill="#C8C6C6"/>
<path d="M1.65751e-05 104.388C1.65121e-05 105.831 1.18333 107 2.64302 107C4.10271 107 5.28601 105.831 5.28601 104.388C5.28601 102.946 4.10271 101.776 2.64302 101.776C1.18333 101.776 1.66382e-05 102.946 1.65751e-05 104.388Z" fill="#C8C6C6"/>
</svg>
